<svg width="137" height="30" viewBox="0 0 137 30" fill="none" xmlns="http://www.w3.org/2000/svg">
<path d="M2.5 18.3922C2.5 20.8163 3.11844 22.9993 4.35532 24.941C5.5922 26.8828 7.23513 28.3608 9.28411 29.375C8.58446 28.7071 8.07221 27.9279 7.74738 27.0374C7.42254 26.1469 7.26012 25.207 7.26012 24.2175C7.26012 23.1786 7.45377 22.2077 7.84108 21.3048C8.22839 20.402 8.79685 19.5795 9.54648 18.8374L14.9813 13.5315L20.5285 18.8745C21.2531 19.5919 21.8091 20.402 22.1964 21.3048C22.5837 22.2077 22.7774 23.1786 22.7774 24.2175C22.7774 25.1822 22.6024 26.116 22.2526 27.0189C21.9028 27.9218 21.3906 28.7071 20.7159 29.375C22.7649 28.3608 24.4078 26.8828 25.6447 24.941C26.8816 22.9993 27.5 20.8163 27.5 18.3922C27.5 16.0917 26.8941 13.9582 25.6822 11.9917C24.4703 10.0251 22.8648 8.46059 20.8658 7.29799L19.9288 8.44822C19.6539 8.79453 19.3478 9.04189 19.0105 9.1903C18.6732 9.33872 18.3421 9.41293 18.0172 9.41293C17.3926 9.41293 16.8178 9.19649 16.2931 8.76361C15.7684 8.33072 15.506 7.73087 15.506 6.96405V1.25C15.3811 1.29947 14.6314 1.73235 13.2571 2.54865C11.8828 3.36494 10.3961 4.51517 8.79685 5.99934C7.19765 7.48351 5.74838 9.26451 4.44903 11.3423C3.14968 13.4202 2.5 15.7701 2.5 18.3922ZM14.9813 18.3179L11.9453 21.3234C11.5455 21.7192 11.2331 22.1644 11.0082 22.6591C10.7834 23.1539 10.6709 23.6733 10.6709 24.2175C10.6709 25.3801 11.0895 26.3696 11.9265 27.1859C12.7636 28.0021 13.7819 28.4103 14.9813 28.4103C16.1807 28.4103 17.1989 28.0021 18.036 27.1859C18.8731 26.3696 19.2916 25.3801 19.2916 24.2175C19.2916 23.6733 19.1854 23.1539 18.973 22.6591C18.7606 22.1644 18.4545 21.7192 18.0547 21.3234L14.9813 18.3179Z" fill="#FF7043"/>
<path d="M53.3945 21.3906C53.3945 20.8633 53.3359 20.3945 53.2188 19.9844C53.1133 19.5625 52.9082 19.1816 52.6035 18.8418C52.2988 18.502 51.8652 18.168 51.3027 17.8398C50.752 17.5117 50.0371 17.1777 49.1582 16.8379C48.1504 16.4512 47.207 16.0293 46.3281 15.5723C45.4609 15.1035 44.6934 14.5762 44.0254 13.9902C43.3691 13.3926 42.8535 12.6953 42.4785 11.8984C42.1035 11.1016 41.916 10.1758 41.916 9.12109C41.916 8.07813 42.0977 7.12891 42.4609 6.27344C42.8359 5.40625 43.3633 4.66211 44.043 4.04102C44.7344 3.4082 45.5547 2.92187 46.5039 2.58203C47.4531 2.23047 48.502 2.05469 49.6504 2.05469C51.3027 2.05469 52.7148 2.40625 53.8867 3.10938C55.0703 3.8125 55.9727 4.75586 56.5938 5.93945C57.2266 7.12305 57.543 8.43555 57.543 9.87695H53.2891C53.2891 9.04492 53.1602 8.30664 52.9023 7.66211C52.6445 7.01758 52.2461 6.51367 51.707 6.15039C51.168 5.78711 50.4707 5.60547 49.6152 5.60547C48.8301 5.60547 48.1797 5.75781 47.6641 6.0625C47.1602 6.36719 46.7852 6.7832 46.5391 7.31055C46.3047 7.83789 46.1875 8.44141 46.1875 9.12109C46.1875 9.58984 46.2871 10.0176 46.4863 10.4043C46.6855 10.7793 46.9727 11.125 47.3477 11.4414C47.7227 11.7578 48.1797 12.0566 48.7188 12.3379C49.2578 12.6191 49.8789 12.8887 50.582 13.1465C51.7773 13.5801 52.8203 14.0605 53.7109 14.5879C54.6016 15.1152 55.334 15.707 55.9082 16.3633C56.4941 17.0078 56.9277 17.7402 57.209 18.5605C57.502 19.3809 57.6484 20.3125 57.6484 21.3555C57.6484 22.4102 57.4668 23.3711 57.1035 24.2383C56.752 25.0938 56.2363 25.8262 55.5566 26.4355C54.877 27.0449 54.0566 27.5195 53.0957 27.8594C52.1348 28.1875 51.0566 28.3516 49.8613 28.3516C48.7598 28.3516 47.6992 28.1875 46.6797 27.8594C45.6719 27.5312 44.7695 27.0332 43.9727 26.3652C43.1758 25.6855 42.543 24.8359 42.0742 23.8164C41.6172 22.7969 41.3887 21.6016 41.3887 20.2305H45.6602C45.6602 21.0508 45.7598 21.7539 45.959 22.3398C46.1582 22.9141 46.4453 23.3887 46.8203 23.7637C47.207 24.127 47.6582 24.3965 48.1738 24.5723C48.7012 24.7363 49.2871 24.8184 49.9316 24.8184C50.7285 24.8184 51.3789 24.6777 51.8828 24.3965C52.3984 24.1035 52.7793 23.6992 53.0254 23.1836C53.2715 22.668 53.3945 22.0703 53.3945 21.3906ZM73.9047 5.92188L67.7172 28H63.2523L71.3734 2.40625H74.1508L73.9047 5.92188ZM78.8441 28L72.6391 5.92188L72.3402 2.40625H75.1703L83.3266 28H78.8441ZM78.9496 18.4902V22.0762H67.0316V18.4902H78.9496ZM91.3035 2.40625H95.1883L101.077 21.4434L106.948 2.40625H110.552L102.677 28H99.4598L91.3035 2.40625ZM89.8445 2.40625H93.4305L94.0105 18.7012V28H89.8445V2.40625ZM108.688 2.40625H112.292V28H108.126V18.7012L108.688 2.40625ZM129.462 2.40625V28H125.208V2.40625H129.462ZM135.984 2.40625V5.99219H118.757V2.40625H135.984Z" fill="#EDDEDE"/>
</svg>
