<svg width="13" height="14" viewBox="0 0 13 14" fill="none" xmlns="http://www.w3.org/2000/svg">
<g id="Group 1">
<path id="Vector" d="M0.666626 8.58305C0.666626 9.71431 0.955232 10.733 1.53244 11.6392C2.10965 12.5454 2.87635 13.2351 3.83254 13.7084C3.50604 13.3967 3.26699 13.0331 3.1154 12.6175C2.96381 12.2019 2.88802 11.7633 2.88802 11.3015C2.88802 10.8167 2.97839 10.3636 3.15913 9.9423C3.33987 9.52096 3.60516 9.13714 3.95498 8.79083L6.49121 6.31474L9.07992 8.80814C9.41808 9.14291 9.67754 9.52096 9.85828 9.9423C10.039 10.3636 10.1294 10.8167 10.1294 11.3015C10.1294 11.7517 10.0478 12.1875 9.88452 12.6089C9.72126 13.0302 9.48222 13.3967 9.16737 13.7084C10.1236 13.2351 10.8903 12.5454 11.4675 11.6392C12.0447 10.733 12.3333 9.71431 12.3333 8.58305C12.3333 7.5095 12.0505 6.51387 11.485 5.59615C10.9194 4.67844 10.1702 3.94831 9.23734 3.40577L8.80006 3.94254C8.67179 4.10415 8.52894 4.21959 8.37152 4.28885C8.2141 4.35811 8.0596 4.39274 7.908 4.39274C7.61648 4.39274 7.34828 4.29174 7.10341 4.08972C6.85853 3.88771 6.73609 3.60778 6.73609 3.24993V0.583374C6.67779 0.606461 6.32796 0.808473 5.68662 1.18941C5.04527 1.57035 4.35145 2.10712 3.60516 2.79973C2.85886 3.49235 2.18253 4.32348 1.57617 5.29314C0.969808 6.26279 0.666626 7.35943 0.666626 8.58305ZM6.49121 8.54841L5.07442 9.95095C4.88785 10.1357 4.74209 10.3434 4.63714 10.5743C4.53219 10.8052 4.47972 11.0476 4.47972 11.3015C4.47972 11.8441 4.67504 12.3058 5.06568 12.6868C5.45631 13.0677 5.93149 13.2582 6.49121 13.2582C7.05093 13.2582 7.52611 13.0677 7.91675 12.6868C8.30739 12.3058 8.50271 11.8441 8.50271 11.3015C8.50271 11.0476 8.45315 10.8052 8.35403 10.5743C8.25491 10.3434 8.11207 10.1357 7.9255 9.95095L6.49121 8.54841Z" fill="#44261C"/>
</g>
</svg>
